<svg xmlns="http://www.w3.org/2000/svg" version="1.1" xmlns:xlink="http://www.w3.org/1999/xlink" xmlns:svgjs="http://svgjs.com/svgjs" width="1440" height="600" preserveAspectRatio="none" viewBox="0 0 1440 600"><g mask="url(&quot;#SvgjsMask1008&quot;)" fill="none"><rect width="1440" height="600" x="0" y="0" fill="rgba(250, 249, 246, 1)"></rect><path d="M150 100C130.31 121.02 120.35 125 120.35 150C120.35 175 130.96 178.31 150 200C196.79 253.31 199.33 251.92 252 300C274.33 320.38 275.44 336.92 300 336.92C326.71 336.92 336.77 326.58 354.55 300C399.27 233.12 417.98 227.24 425 150C431.61 77.24 373.12 52.2 381.82 0C385.62 -22.8 415.91 0 450 0C525 0 525 0 600 0C675 0 675 0 750 0C825 0 825 0 900 0C975 0 975 0 1050 0C1125 0 1125 0 1200 0C1275 0 1275 0 1350 0C1425 0 1462.5 -37.5 1500 0C1537.5 37.5 1500 75 1500 150C1500 225 1500 225 1500 300C1500 375 1500 375 1500 450C1500 525 1532.02 557.02 1500 600C1476.15 632.02 1433.34 619.1 1388.27 600C1358.34 587.32 1380.04 538.52 1350 536.44C1285.91 532 1275.03 586.86 1200 586.96C1125.03 587.06 1121.52 533.11 1050 536.84C996.52 539.63 1002.72 577.8 950 600C927.72 609.38 925 600 900 600C825 600 825 600 750 600C675 600 675 600 600 600C553.57 600 549.2 612.62 507.14 600C474.2 590.12 483.79 561.02 450 555C380.22 542.56 368.54 546.06 300 563.08C277.95 568.56 290.51 594.66 268.83 600C215.51 613.12 209.41 600 150 600C75 600 37.5 637.5 0 600C-37.5 562.5 0 525 0 450C0 427.5 -3.76 427.05 0 405C9.04 352.05 25.61 346.81 25.61 300C25.61 287.4 2.25 299.39 0 286.18C-10.55 224.39 0 218.09 0 150C0 75 -37.5 37.5 0 0C37.5 -37.5 75 0 150 0C205.44 0 260.87 -21.31 260.87 0C260.87 28.69 200.57 46.02 150 100" stroke="rgba(63, 75, 199, 0.13)" stroke-width="2"></path><path d="M1350 127.78C1336.61 127.78 1328.18 138.79 1328.18 150C1328.18 161.44 1336.47 173.08 1350 173.08C1377.38 173.08 1410 161.35 1410 150C1410 138.7 1377.52 127.78 1350 127.78" stroke="rgba(63, 75, 199, 0.13)" stroke-width="2"></path><path d="M1200 267.5C1186.01 267.5 1174.34 284.5 1174.34 300C1174.34 313.58 1186.26 325.66 1200 325.66C1216.19 325.66 1234.21 313.83 1234.21 300C1234.21 284.75 1215.94 267.5 1200 267.5" stroke="rgba(63, 75, 199, 0.13)" stroke-width="2"></path><path d="M150 26.47C109.77 85.28 118.25 91.79 76.74 150C43.25 196.97 21.93 236.84 0 236.84C-16.44 236.84 0 193.42 0 150C0 75 -37.5 37.5 0 0C37.5 -37.5 75 0 150 0C164.68 0 179.35 -5.64 179.35 0C179.35 7.59 161.07 10.28 150 26.47" stroke="rgba(63, 75, 199, 0.13)" stroke-width="2"></path><path d="M1350 58.33C1309.58 58.33 1267.11 16.04 1267.11 0C1267.11 -13.12 1308.55 0 1350 0C1385.8 0 1421.59 -12.74 1421.59 0C1421.59 16.43 1386.82 58.33 1350 58.33" stroke="rgba(63, 75, 199, 0.13)" stroke-width="2"></path><path d="M566.67 600C566.67 564.11 566.77 504.55 600 504.55C658.44 504.55 750 574.11 750 600C750 621.84 675 600 600 600C583.34 600 566.67 611.83 566.67 600" stroke="rgba(63, 75, 199, 0.13)" stroke-width="2"></path><path d="M0 26.09C8.43 26.09 33.14 91.95 33.14 150C33.14 172.65 9.47 187.5 0 187.5C-7.1 187.5 0 168.75 0 150C0 88.05 -8.14 26.09 0 26.09" stroke="rgba(63, 75, 199, 0.13)" stroke-width="2"></path><path d="M553.13 300C553.13 280.59 579.52 259.46 600 259.46C615.89 259.46 625.86 280.18 625.86 300C625.86 317.89 615.5 334.88 600 334.88C579.14 334.88 553.13 318.3 553.13 300" stroke="rgba(63, 75, 199, 0.13)" stroke-width="2"></path><path d="M896.94 300C896.94 297.23 897.22 295.91 900 294.23C973.75 249.48 993.53 205.29 1050 207.14C1081.36 208.17 1075.66 254.25 1075.66 300C1075.66 333.18 1076.48 364.37 1050 365C988.65 366.46 974.16 335.66 900 304.17C897.63 303.16 896.94 302.2 896.94 300" stroke="rgba(63, 75, 199, 0.13)" stroke-width="2"></path><path d="M113.71 450C118.88 410.96 120.02 377.42 150 377.42C208.48 377.42 285.78 399.66 290.63 450C296.5 510.95 234.67 532.54 171.43 600C164.36 607.54 160.72 600 150 600C135.27 600 123.52 612.3 120.54 600C105.37 537.3 104.15 522.25 113.71 450" stroke="rgba(63, 75, 199, 0.13)" stroke-width="2"></path><path d="M321.43 450C321.43 439.01 391.61 417.86 450 417.86C467.43 417.86 473.08 436.84 473.08 450C473.08 458.54 462.58 461.25 450 461.25C386.76 461.25 321.43 460.7 321.43 450" stroke="rgba(63, 75, 199, 0.13)" stroke-width="2"></path><path d="M1135 450C1135 436.62 1167.43 424.34 1200 424.34C1233.55 424.34 1267.24 436.61 1267.24 450C1267.24 463.57 1233.53 478.26 1200 478.26C1167.41 478.26 1135 463.58 1135 450" stroke="rgba(63, 75, 199, 0.13)" stroke-width="2"></path><path d="M1464.8 600C1464.8 568.7 1490.86 513.75 1500 513.75C1508.46 513.75 1512.5 569.37 1500 600C1494.9 612.5 1464.8 611.83 1464.8 600" stroke="rgba(63, 75, 199, 0.13)" stroke-width="2"></path></g><defs><mask id="SvgjsMask1008"><rect width="1440" height="600" fill="#ffffff"></rect></mask></defs></svg>